name C:\Users\r0593348\3dpredictsim\Results\Batchsim_tmt_linear\Pog_s1_tmt_aCst_d00_k250_ig24_pas.mot
datacolumns 128
datarows 4
range 1.13093010 1.16485800
endheader
time	pelvis_tilt	pelvis_list	pelvis_rotation	pelvis_tx	pelvis_ty	pelvis_tz	hip_flexion_l	hip_adduction_l	hip_rotation_l	hip_flexion_r	hip_adduction_r	hip_rotation_r	knee_angle_l	knee_angle_r	ankle_angle_l	ankle_angle_r	subtalar_angle_l	subtalar_angle_r	tmt_angle_l	tmt_angle_r	mtp_angle_l	mtp_angle_r	lumbar_extension	lumbar_bending	lumbar_rotation	arm_flex_l	arm_add_l	arm_rot_l	arm_flex_r	arm_add_r	arm_rot_r	elbow_flex_l	elbow_flex_r	pro_sup_l	pro_sup_r	glut_med1_l/activation	glut_med2_l/activation	glut_med3_l/activation	glut_min1_l/activation	glut_min2_l/activation	glut_min3_l/activation	semimem_l/activation	semiten_l/activation	bifemlh_l/activation	bifemsh_l/activation	sar_l/activation	add_long_l/activation	add_brev_l/activation	add_mag1_l/activation	add_mag2_l/activation	add_mag3_l/activation	tfl_l/activation	pect_l/activation	grac_l/activation	glut_max1_l/activation	glut_max2_l/activation	glut_max3_l/activation	iliacus_l/activation	psoas_l/activation	quad_fem_l/activation	gem_l/activation	peri_l/activation	rect_fem_l/activation	vas_med_l/activation	vas_int_l/activation	vas_lat_l/activation	med_gas_l/activation	lat_gas_l/activation	soleus_l/activation	tib_post_l/activation	flex_dig_l/activation	flex_hal_l/activation	tib_ant_l/activation	per_brev_l/activation	per_long_l/activation	per_tert_l/activation	ext_dig_l/activation	ext_hal_l/activation	ercspn_l/activation	intobl_l/activation	extobl_l/activation	glut_med1_r/activation	glut_med2_r/activation	glut_med3_r/activation	glut_min1_r/activation	glut_min2_r/activation	glut_min3_r/activation	semimem_r/activation	semiten_r/activation	bifemlh_r/activation	bifemsh_r/activation	sar_r/activation	add_long_r/activation	add_brev_r/activation	add_mag1_r/activation	add_mag2_r/activation	add_mag3_r/activation	tfl_r/activation	pect_r/activation	grac_r/activation	glut_max1_r/activation	glut_max2_r/activation	glut_max3_r/activation	iliacus_r/activation	psoas_r/activation	quad_fem_r/activation	gem_r/activation	peri_r/activation	rect_fem_r/activation	vas_med_r/activation	vas_int_r/activation	vas_lat_r/activation	med_gas_r/activation	lat_gas_r/activation	soleus_r/activation	tib_post_r/activation	flex_dig_r/activation	flex_hal_r/activation	tib_ant_r/activation	per_brev_r/activation	per_long_r/activation	per_tert_r/activation	ext_dig_r/activation	ext_hal_r/activation	ercspn_r/activation	intobl_r/activation	extobl_r/activation	
          1.13093010	         -2.92068704	         -2.41157143	          6.81288330	          1.41366263	          0.85478657	         -0.00462837	        -17.97314596	         -2.03660814	          9.04442976	         32.12267158	          3.20405969	         -2.94416633	        -10.18005940	        -14.98877096	         -1.50615525	          6.79422907	         12.93268476	         -2.76745000	          3.86478701	          0.12490350	         21.41488609	         -0.08155046	         -2.37722252	          1.30003796	         -2.03284269	          7.89842473	        -13.49715130	         18.21293095	        -10.80653910	        -13.61056449	          7.68595088	         43.50277793	         14.28206287	         86.51662706	         86.51662706	          0.22371594	          0.09050756	          0.05000001	          0.27179017	          0.19286598	          0.09975685	          0.05000082	          0.05000007	          0.05000006	          0.06286444	          0.10301985	          0.12619120	          0.25322646	          0.05529645	          0.05000126	          0.05000023	          0.29994455	          0.06627261	          0.05000075	          0.05000031	          0.05000020	          0.05000019	          0.36583315	          0.57546478	          0.05000004	          0.05000023	          0.07062512	          0.22063583	          0.05000122	          0.07857695	          0.14090804	          0.26637734	          0.35711451	          0.24973761	          0.22176593	          0.26402222	          0.31567803	          0.05000000	          0.07663447	          0.14496315	          0.05000002	          0.05000000	          0.05000003	          0.06616173	          0.05354155	          0.07062515	          0.05942439	          0.05942438	          0.05000003	          0.05942442	          0.05942441	          0.05000353	          0.10554399	          0.05942448	          0.27202620	          0.05000144	          0.05000008	          0.16984856	          0.34904366	          0.30430625	          0.21268527	          0.10229037	          0.05000004	          0.06425481	          0.16016301	          0.05000009	          0.05000016	          0.16525031	          0.07062542	          0.07062575	          0.59765075	          0.35635255	          0.16359915	          0.05527538	          0.11248805	          0.12837697	          0.10448615	          0.06844955	          0.07062476	          0.07062518	          0.07062521	          0.05000018	          0.05000024	          0.57859479	          0.34097058	          0.20186345	          0.23998081	          0.57418490	          0.36005989	          0.05924043	          0.08119370	          0.07310075	
          1.14223940	         -2.90569215	         -2.54071965	          7.02311634	          1.43134716	          0.85364520	         -0.00436282	        -17.50339403	         -2.33312077	          8.78911535	         31.46880404	          3.72455048	         -2.70707469	        -12.78265778	        -15.52032262	         -2.64754087	          6.05601943	         14.09902156	         -3.25573309	          3.62015370	         -0.00065622	         22.59616659	         -0.09494883	         -2.13698121	          1.56758761	         -2.13269089	          7.52522589	        -13.53518915	         18.33561760	        -12.01569714	        -13.60032183	          7.47591109	         44.79391828	         14.26243116	         86.51662706	         86.51662706	          0.18823572	          0.07615353	          0.05942443	          0.22868562	          0.16227842	          0.08393594	          0.06558407	          0.05000007	          0.05000022	          0.05289446	          0.08668145	          0.21001977	          0.31987695	          0.28363028	          0.08704529	          0.12518789	          0.25237489	          0.05576221	          0.05000047	          0.05942487	          0.05942485	          0.05942487	          0.30781384	          0.50667125	          0.05942448	          0.05942460	          0.05942439	          0.18564409	          0.11856163	          0.11856168	          0.11856083	          0.22413121	          0.30047793	          0.21013046	          0.18659497	          0.22214965	          0.26561309	          0.05000065	          0.06448064	          0.12197273	          0.05000003	          0.05000014	          0.05000013	          0.08964192	          0.07060875	          0.05942437	          0.05000000	          0.05000000	          0.10318077	          0.05000001	          0.05000001	          0.05000001	          0.08880527	          0.05000010	          0.22888420	          0.05000003	          0.05942519	          0.14291147	          0.32427520	          0.41405490	          0.30284040	          0.13581765	          0.05000009	          0.08393757	          0.17641419	          0.05009373	          0.12395216	          0.17408123	          0.05942460	          0.05942489	          0.68501864	          0.29983682	          0.13765316	          0.05942444	          0.21026876	          0.23346270	          0.18977173	          0.05942442	          0.05942446	          0.05942441	          0.05942441	          0.07062758	          0.07062515	          0.59248266	          0.45626547	          0.25545655	          0.20192109	          0.59669689	          0.30295621	          0.05000000	          0.06831679	          0.06150734	
          1.15354870	         -2.88494660	         -2.67057883	          7.19570996	          1.44923434	          0.85234272	         -0.00411497	        -16.92238334	         -2.60079230	          8.51540564	         30.57623829	          4.12324068	         -2.41839558	        -15.56431253	        -15.98291274	         -3.85657359	          5.55623337	         15.15416930	         -3.77373294	          3.17304626	         -0.10713637	         23.51793419	         -0.19451066	         -1.88110588	          1.83489540	         -2.22223635	          7.06410181	        -13.57542082	         18.36601696	        -13.18347120	        -13.59987528	          7.35810987	         46.06491249	         14.20056409	         86.51662706	         86.51662706	          0.26560411	          0.06407597	          0.05000002	          0.34802788	          0.13654191	          0.07062414	          0.09241426	          0.05000003	          0.05000002	          0.05000005	          0.07298236	          0.17671176	          0.26914612	          0.23864795	          0.07324041	          0.10533375	          0.25569351	          0.10297097	          0.05000009	          0.05000052	          0.05000043	          0.05000042	          0.25899612	          0.46290886	          0.05000006	          0.05000020	          0.05000003	          0.15620186	          0.09975835	          0.09975839	          0.09975768	          0.18858512	          0.25282362	          0.17680482	          0.15700194	          0.18691786	          0.22348820	          0.17566806	          0.15477736	          0.15966101	          0.28341743	          0.21177687	          0.13692123	          0.10122162	          0.05941055	          0.05000001	          0.33721055	          0.35609687	          0.37682409	          0.45836638	          0.34833484	          0.26794824	          0.09921805	          0.11736369	          0.19258432	          0.08393722	          0.05000076	          0.12024643	          0.27284678	          0.34838789	          0.25481155	          0.16033404	          0.05000009	          0.07062571	          0.14843597	          0.21045019	          0.19060642	          0.16197311	          0.05000020	          0.05000042	          0.57637810	          0.25228422	          0.26573594	          0.05000003	          0.17692123	          0.19643684	          0.15967492	          0.05000002	          0.05000006	          0.05000000	          0.05000000	          0.05942642	          0.05942438	          0.63147444	          0.45026750	          0.21494245	          0.54498281	          0.67519740	          0.36390156	          0.07783369	          0.08393735	          0.05175259	
          1.16485800	         -2.86090352	         -2.78632471	          7.32484564	          1.46703299	          0.85092806	         -0.00382907	        -16.20677723	         -2.82895900	          8.23104077	         29.59996129	          4.48786675	         -2.13910561	        -18.52342888	        -16.37277207	         -4.84398017	          5.26806870	         16.09292626	         -4.32691400	          2.33735986	         -0.05875464	         23.70426083	         -0.20178329	         -1.63861411	          2.08578604	         -2.29897180	          6.57298863	        -13.62498426	         18.33881463	        -14.24672651	        -13.60186774	          7.34114614	         47.27404201	         14.06086057	         86.51662706	         86.51662706	          0.22348064	          0.05391391	          0.05000033	          0.29283242	          0.11488708	          0.05942362	          0.12411323	          0.05942438	          0.05942446	          0.05000063	          0.06140780	          0.17970552	          0.25045748	          0.24004545	          0.06164210	          0.10384381	          0.21514193	          0.08664042	          0.05942457	          0.05000234	          0.05000141	          0.05000089	          0.21792063	          0.38949386	          0.05156945	          0.05000489	          0.05000029	          0.13142902	          0.08393718	          0.08393721	          0.08393661	          0.15867646	          0.21272706	          0.14876445	          0.13210223	          0.15727367	          0.18804412	          0.21772761	          0.14278629	          0.13433965	          0.23846887	          0.25557661	          0.11520645	          0.12813730	          0.05000000	          0.05000000	          0.46671750	          0.52855512	          0.56589516	          0.39248505	          0.37676791	          0.49272347	          0.08642226	          0.11907485	          0.16204141	          0.07062522	          0.05000011	          0.10117596	          0.22957465	          0.29313536	          0.24004469	          0.18651925	          0.05000008	          0.05942509	          0.12489487	          0.31305514	          0.24204798	          0.18690946	          0.05000004	          0.05000003	          0.48496741	          0.21227323	          0.30414346	          0.05000001	          0.25709444	          0.28574994	          0.22670436	          0.05000000	          0.05000001	          0.05000000	          0.05000000	          0.05000172	          0.05000008	          0.77820767	          0.37885732	          0.18085365	          0.56713214	          0.67057168	          0.51526640	          0.10241294	          0.07062530	          0.05000001	
